<?xml version="1.0"?>
<svg width="16" height="16" xmlns="http://www.w3.org/2000/svg" xmlns:svg="http://www.w3.org/2000/svg">
 <desc>Eye Dropper Icon</desc>

 <g class="layer">
  <title>Layer</title>
  <path d="m10.01,0.86l-2.98,2.97l-0.27,-0.27c-0.37,-0.37 -0.96,-0.37 -1.33,0s-0.36,0.96 0,1.32l4.69,4.69c0.37,0.37 0.96,0.37 1.33,0s0.36,-0.96 0,-1.33l-0.28,-0.27l2.97,-2.98c1.15,-1.14 1.15,-2.99 0,-4.13s-2.99,-1.14 -4.13,0zm-8.39,8.61c-0.44,0.44 -0.68,1.04 -0.68,1.66l0,1.24l-0.78,1.17c-0.25,0.37 -0.2,0.87 0.12,1.18s0.81,0.37 1.18,0.12l1.17,-0.78l1.24,0c0.62,0 1.22,-0.24 1.66,-0.68l3.53,-3.54l-1.32,-1.33l-3.54,3.54c-0.09,0.09 -0.21,0.14 -0.33,0.14l-1.06,0l0,-1.06c0,-0.12 0.05,-0.24 0.14,-0.33l3.54,-3.54l-1.33,-1.32l-3.54,3.53z" fill="#d678a7" id="svg_1"/>
 </g>
</svg>